<?xml version="1.0" encoding="UTF-8"?>
<svg id="Ebene_2" data-name="Ebene 2" xmlns="http://www.w3.org/2000/svg" viewBox="0 0 155.91 155.91">
  <defs>
    <style>
      .cls-1 {
        fill: #fff;
      }

      .cls-2 {
        fill: #bababa;
      }
    </style>
  </defs>
  <g id="Ebene_1-2" data-name="Ebene 1">
    <path class="cls-2" d="m77.95,22l52.03,52.03c1.25,1.25,1.93,2.91,1.93,4.67v75.08h-38.06v-38.39c0-1.6-1.3-2.9-2.9-2.9h-26c-1.6,0-2.9,1.3-2.9,2.9v38.39H23.98v-75.08c0-1.76.69-3.42,1.93-4.67l52.03-52.03m0-1.41l-52.74,52.74c-1.43,1.43-2.23,3.36-2.23,5.38v76.08h40.06v-39.39c0-1.05.85-1.9,1.9-1.9h26c1.05,0,1.9.85,1.9,1.9v39.39h40.06v-76.08c0-2.02-.8-3.95-2.23-5.38l-52.74-52.74h0Z"/>
    <path class="cls-2" d="m77.95,2.54l5.73,5.73,69.57,69.57c1.24,1.24,1.24,3.25,0,4.48l-.54.54c-.6.6-1.39.93-2.24.93s-1.64-.33-2.24-.93L78.66,13.3l-.71-.71-.71.71L7.68,82.87c-.6.6-1.39.93-2.24.93s-1.64-.33-2.24-.93l-.54-.54c-1.24-1.24-1.24-3.25,0-4.48l31.39-31.39.29-.29v-29.15h15.33v13.82l1.71-1.71,20.85-20.85,5.73-5.73m0-1.41l-6.44,6.44-20.85,20.85v-12.41h-17.33v29.74L1.95,77.13c-1.63,1.63-1.63,4.27,0,5.9l.54.54c.81.81,1.88,1.22,2.95,1.22s2.13-.41,2.95-1.22L77.95,14.01l69.57,69.57c.81.81,1.88,1.22,2.95,1.22s2.13-.41,2.95-1.22l.54-.54c1.63-1.63,1.63-4.27,0-5.9L84.39,7.57l-6.44-6.44h0Z"/>
    <path class="cls-1" d="m0,0v155.91h155.91V0H0Zm132.92,154.78h-40.06v-39.39c0-1.05-.85-1.9-1.9-1.9h-26c-1.05,0-1.9.85-1.9,1.9v39.39H22.98v-76.08c0-2.02.8-3.95,2.23-5.38l52.74-52.74,52.74,52.74c1.43,1.43,2.23,3.36,2.23,5.38v76.08Zm21.04-71.75l-.54.54c-1.63,1.63-4.27,1.63-5.9,0L77.95,14.01,8.39,83.57c-1.63,1.63-4.27,1.63-5.9,0l-.54-.54c-1.63-1.63-1.63-4.27,0-5.9l31.39-31.39v-29.74h17.33v12.41l20.85-20.85,6.44-6.44,6.44,6.44,69.57,69.57c1.63,1.63,1.63,4.27,0,5.9Z"/>
  </g>
</svg>