<?xml version="1.0" encoding="UTF-8"?>
<svg id="Ebene_2" data-name="Ebene 2" xmlns="http://www.w3.org/2000/svg" viewBox="0 0 384 388.07">
  <defs>
    <style>
      .cls-1 {
        fill: #fff;
      }

      .cls-2 {
        fill: #dbdbdb;
      }

      .cls-3 {
        fill: #eee;
      }
    </style>
  </defs>
  <g id="Ebene_1-2" data-name="Ebene 1">
    <path d="m378.92,188.52l-1.45-1.45c-12.39-12.47-24.83-24.88-37.1-37.48-1.36-1.39-2.34-3.81-2.35-5.75-.15-26.83-.1-53.65-.1-80.48v-4.18h-4.55c-26.58,0-53.16-.03-79.74.05-2.65,0-4.58-.68-6.51-2.62-17.48-17.64-35.11-35.12-52.57-52.78-2.48-2.51-3.84-2.65-6.43-.06C128.28,63.74,68.34,123.63,8.43,183.54c-.87.87-1.66,1.82-2.48,2.73-1.32,1.23-2.63,2.46-4.47,4.18,1.3,1,2.37,1.66,3.24,2.53,12.84,12.79,25.68,25.59,38.43,38.47,1.13,1.14,1.68,2.86,2.49,4.32-.07.86-.19,1.73-.19,2.59,0,47.69,0,95.37,0,143.06,0,.86.14,1.72.21,2.59h292.03c.07-.99.21-1.97.21-2.96.01-47.44.01-94.87,0-142.31,0-.99-.12-1.98-.19-2.97.81-1.7,1.31-3.67,2.5-5.04,2.99-3.43,6.3-6.59,9.49-9.86,9.87-9.78,19.72-19.59,29.64-29.32,1.45-1.42,1.11-2.22-.43-3.03Zm-153.66,172.28c-.21.2-.42.4-.63.6h-66.64c-.21-.2-.41-.41-.62-.61.2-18.61.43-37.22.57-55.83.09-11.09.03-22.18.04-33.26h0c22.47,0,44.93,0,67.4,0h0c-.04,29.7-.09,59.4-.13,89.1Zm90.14-5.6c0,1.87-.18,3.73-.28,5.6-.21.2-.42.4-.63.6-21.96,0-43.92,0-65.88,0-.2-.21-.4-.41-.59-.62-.03-35.8-.07-71.61-.1-107.41,0-1.34,0-2.68,0-4.17h-112.44v4.08c0,34.68-.04,69.36.07,104.05,0,3.21-.76,4.29-4.14,4.26-21.08-.19-42.17-.15-63.25-.19l-.62-.61c.15-1.92.43-3.84.43-5.77.02-43.79.04-87.58-.04-131.37,0-2.69.71-4.59,2.64-6.5,17.63-17.48,35.2-35.02,52.71-52.62,21.7-21.83,43.35-43.7,64.93-65.65,2.31-2.35,3.56-2.75,6.16-.14,39.44,39.6,78.99,79.1,118.59,118.55,1.83,1.83,2.53,3.61,2.53,6.17-.07,43.91-.05,87.83-.07,131.74Zm20.78-151.7h0c-1.17.68-2.34,1.36-3.51,2.05-.78-.66-1.6-1.36-2.42-2.06-.82-.91-1.61-1.86-2.48-2.73-44.44-44.44-88.9-88.85-133.26-133.36-2.58-2.59-3.93-2.46-6.42.05-44.1,44.24-88.3,88.39-132.47,132.56-.87.87-1.66,1.82-2.48,2.73-1.62.47-2.33,3.97-4.79,1.59-4.79-4.64-9.49-9.39-14.17-14.04.81-1.06,1.34-1.73,1.86-2.41.91-.82,1.86-1.61,2.73-2.48,49.76-49.75,99.52-99.5,149.28-149.25q3.66-3.66,7.34.02c23.82,23.82,47.64,47.64,71.46,71.45.91.91,1.85,1.78,3.5,3.36v-29.09h44.9c.06,1.29.18,2.72.18,4.14.01,22.45.04,44.91-.04,67.36,0,2.12.58,3.47,2.12,4.98,9.81,9.6,19.46,19.35,29.14,29.07.85.85,1.49,1.9,3.04,3.79-4.5,4.09-8.99,8.17-13.49,12.26Z"/>
    <path class="cls-3" d="m67.51,360.79c.21.2.41.41.62.61-.21-.2-.41-.41-.62-.61Z"/>
    <path class="cls-3" d="m157.36,360.79c.21.2.41.41.62.61-.21-.2-.41-.41-.62-.61Z"/>
    <path class="cls-3" d="m224.63,361.4c.21-.2.42-.4.63-.6-.21.2-.42.4-.63.6Z"/>
    <path class="cls-2" d="m248.01,360.78c.2.21.4.41.59.62-.2-.21-.4-.41-.59-.62Z"/>
    <path class="cls-3" d="m314.48,361.4c.21-.2.42-.4.63-.6-.21.2-.42.4-.63.6Z"/>
    <path class="cls-1" d="m0,0c0,128.04,0,256.02,0,384v4.07h384V0H0Zm45.67,384c-.07-.86-.21-1.72-.21-2.59-.01-47.69-.01-95.37,0-143.06,0-.86.12-1.73.19-2.59-.82-1.45-1.36-3.17-2.49-4.32-12.75-12.88-25.59-25.68-38.43-38.47-.87-.86-1.94-1.52-3.24-2.53,1.84-1.72,3.15-2.95,4.47-4.18.82-.91,1.61-1.86,2.48-2.73C68.34,123.63,128.28,63.74,188.12,3.76c2.59-2.6,3.95-2.45,6.43.06,17.45,17.66,35.09,35.14,52.57,52.78,1.93,1.95,3.85,2.63,6.51,2.62,26.58-.08,53.16-.05,79.74-.05h4.55v4.18c0,26.83-.05,53.65.1,80.48.01,1.95,1,4.36,2.35,5.75,12.26,12.6,24.7,25.01,37.1,37.48l1.45,1.45c1.54.81,1.88,1.61.43,3.03-9.92,9.73-19.77,19.54-29.64,29.32-3.18,3.27-6.49,6.43-9.49,9.86-1.19,1.37-1.69,3.34-2.5,5.04.07.99.19,1.98.19,2.97,0,47.44,0,94.87,0,142.31,0,.99-.14,1.97-.21,2.96H45.67Z"/>
  </g>
</svg>