<?xml version="1.0" encoding="UTF-8"?>
<svg id="Ebene_2" data-name="Ebene 2" xmlns="http://www.w3.org/2000/svg" viewBox="0 0 373.94 356.13">
  <defs>
    <style>
      .cls-1 {
        fill: #fff;
      }
    </style>
  </defs>
  <g id="Ebene_1-2" data-name="Ebene 1">
    <g>
      <path class="cls-1" d="m270.67,208c-20.81.17-41.63.15-62.45.02-3.33-.02-4.53.79-4.51,4.36.12,40.88.12,81.77,0,122.65-.01,3.59,1.22,4.36,4.53,4.34,20.81-.13,41.63-.15,62.45.02,3.77.03,4.53-1.3,4.51-4.75-.14-20.32-.07-40.63-.07-60.95s-.07-40.63.07-60.95c.02-3.47-.77-4.77-4.52-4.74Zm-49.28,65.91c-3.63-.05-6.25-2.84-6.11-6.5.14-3.47,2.81-5.97,6.31-5.92,3.63.05,6.26,2.84,6.11,6.5-.14,3.46-2.82,5.98-6.31,5.93Z"/>
      <path class="cls-1" d="m95.98,234.6c-.01,2.03.74,2.94,2.84,2.92,5.84-.06,11.69-.08,17.53,0,2.22.03,3.16-.78,3.1-3.05-.1-3.85-.03-7.71-.03-11.56,0-3.98-.05-7.96.02-11.93.04-2.04-.74-2.94-2.84-2.91-5.84.06-11.69.08-17.53,0-2.22-.03-3.12.78-3.1,3.04.08,7.83.06,15.66.01,23.49Z"/>
      <path class="cls-1" d="m119.42,264.65c0-3.85-.07-7.71.03-11.56.06-2.2-.74-3.15-3.03-3.12-5.72.09-11.44.1-17.15,0-2.39-.05-3.33.78-3.3,3.23.1,7.71.08,15.42,0,23.12-.02,2.2.74,3.15,3.03,3.12,5.72-.09,11.44-.1,17.15,0,2.39.05,3.38-.78,3.3-3.23-.13-3.85-.03-7.71-.04-11.56Z"/>
      <path class="cls-1" d="m152.29,249.97c-5.84.09-11.69.07-17.53,0-2.09-.02-2.86.87-2.85,2.91.05,7.83.07,15.66,0,23.5-.02,2.26.87,3.08,3.09,3.05,5.84-.09,11.69-.07,17.53,0,2.09.02,2.88-.87,2.84-2.91-.08-3.85-.02-7.71-.02-11.56,0-3.98-.07-7.96.03-11.93.06-2.27-.87-3.08-3.09-3.05Z"/>
      <path class="cls-1" d="m44.03,292.73c-5.7,1.89-8.52,7.6-7.13,14.55,1.06,5.32-1.1,8.32-6.24,8.66-7.26.48-12.57,5.51-12.45,11.78.12,6.47,5.72,11.44,13.11,11.56,4.23.07,8.47-.12,12.7.06,2.86.13,3.64-1.05,3.58-3.74-.14-6.72-.05-13.45-.05-20.17,0-6.72-.12-13.45.05-20.17.08-3.03-1.17-3.35-3.59-2.55Z"/>
      <path class="cls-1" d="m247.38,71.38c10.96,7.99,21.91,16.01,33.1,24.19.36-.69.57-.9.57-1.11.03-17.07.02-34.14.09-51.21,0-2.44-1.24-2.87-3.29-2.86-9.6.05-19.19.07-28.79-.01-2.31-.02-3.42.62-3.39,3.16.1,7.97.06,15.95.03,23.93,0,1.59.31,2.93,1.68,3.92Z"/>
      <path class="cls-1" d="m152.04,208.04c-5.59.15-11.19.11-16.78.01-2.32-.04-3.4.66-3.36,3.17.1,7.71.08,15.42.01,23.12-.02,2.15.63,3.21,2.97,3.18,5.84-.09,11.69-.09,17.53,0,2.33.04,3.03-1.01,2.98-3.17-.09-3.73-.03-7.46-.02-11.19,0-3.85-.1-7.71.04-11.56.09-2.48-.64-3.64-3.35-3.57Z"/>
      <path class="cls-1" d="m326.09,144.76c-45.5-33.26-91.03-66.48-136.46-99.84-3.06-2.25-5.09-2.21-8.1,0-33.15,24.38-66.39,48.63-99.61,72.91-12.78,9.35-25.54,18.72-38.38,27.99-2.32,1.67-2.35,2.79-.01,4.38,2.68,1.82,5.21,3.86,7.81,5.8.8.59,1.56,1.26,3.12,1.36.79-.53,1.94-1.24,3.03-2.03,40.54-29.48,81.09-58.96,121.62-88.44,5.77-4.19,7.18-4.2,12.92-.02,38.82,28.24,77.64,56.49,116.47,84.71q8.77,6.38,17.59-.26c4.42-3.32,4.43-3.34.02-6.56Z"/>
      <path class="cls-1" d="m341.49,315.94c-6.67-.57-8.44-2.93-7.13-9.5.07-.37.15-.73.22-1.1.95-5.18-2.3-10.75-7.26-12.53-2.52-.91-3.92-.73-3.82,2.6.2,6.73.06,13.46.06,20.2,0,6.73.08,13.47-.04,20.2-.04,2.53.74,3.62,3.41,3.53,4.48-.16,8.98-.02,13.46-.06,2.27-.02,4.46-.51,6.47-1.61,4.26-2.34,6.8-7.52,5.91-11.96-1.11-5.56-5.4-9.26-11.28-9.76Z"/>
      <path class="cls-1" d="m243.98,27.97c11.81-.16,23.63,0,35.44-.08,8.7-.06,7.47,1.38,7.73-7.73.09-3.09-1.14-3.81-3.95-3.75-6.46.15-12.93.05-19.4.05-5.6,0-11.19-.04-16.79.01-8.25.08-7.07-1.14-7.37,7.37-.12,3.42,1.18,4.18,4.33,4.14Z"/>
      <path class="cls-1" d="m0,0v356.13h373.94V0H0Zm365.37,330.82c-1.08,9.88-8.92,18.38-19.14,20.51-2.29.48-4.71.45-7.07.45-51.27.02-102.54.02-153.82.01-51.77,0-103.54,0-155.31,0-9.28,0-16.43-4.01-21.08-11.92-4.82-8.19-4.64-16.65.13-24.89,2.72-4.69,6.74-7.99,11.77-9.97,1.82-.72,2.66-1.69,2.87-3.78,1.11-11.3,9.2-19.9,20.51-21.59,2.85-.43,3.38-1.55,3.37-4.08-.06-34.43-.06-68.86,0-103.29,0-2.24-.75-3.69-2.54-5-5.85-4.25-11.62-8.63-17.38-13-5.6-4.26-5.64-8.54-.03-12.64,50.85-37.18,101.72-74.34,152.59-111.49,4.29-3.13,6.39-3.11,10.79.09,12.9,9.4,25.78,18.84,38.69,28.24.88.64,1.78,1.99,2.81,1.52,1.32-.6.62-2.23.64-3.39.07-4.24-.04-8.48.06-12.72.04-1.93-.33-3.24-2.36-4.07-2.53-1.03-3.66-3.21-3.65-5.99.03-7.73-.06-15.47.03-23.2.05-4.4,2.32-6.63,6.8-6.64,19.59-.05,39.17-.05,58.76,0,4.44.01,6.7,2.28,6.75,6.69.09,7.61,0,15.22.04,22.83.02,2.91-1.02,5.24-3.71,6.34-2.07.84-2.31,2.22-2.31,4.1.04,19.34.06,38.67-.02,58.01-.01,2.41.89,3.89,2.78,5.26,15.45,11.21,30.85,22.47,46.24,33.76,6.84,5.02,6.8,8.83-.07,14-5.48,4.13-10.93,8.3-16.48,12.33-1.8,1.31-2.53,2.77-2.52,5,.06,34.43.06,68.86,0,103.29,0,2.56.6,3.62,3.41,4.04,11.31,1.71,19.4,10.26,20.44,21.63.27,2.88,2.1,3.32,3.97,4.19,9.93,4.67,15.25,14.29,14.04,25.35Z"/>
      <path class="cls-1" d="m311.05,253.85c0-26.82-.04-53.63.05-80.45,0-2.88-.77-4.75-3.21-6.52-39.6-28.67-79.14-57.43-118.6-86.28-2.84-2.07-4.68-2.01-7.47.03-39.47,28.85-79.01,57.61-118.6,86.28-2.45,1.78-3.2,3.66-3.2,6.53.07,53.63.05,107.27.05,160.9q0,4.96,4.88,4.97c40.41,0,80.82,0,121.24,0q5.09,0,5.1-5.13c0-43.41,0-86.81,0-130.22,0-6.46,1.84-8.36,8.13-8.36,26.69-.01,53.38-.01,80.08,0,6.18,0,8.11,1.91,8.12,7.99.02,16.21,0,32.43,0,48.64,0,27.69.04,55.38-.06,83.07-.01,3.09.92,4.19,4.04,4.06,4.98-.21,9.99-.28,14.96.02,3.73.23,4.57-1.2,4.55-4.7-.13-26.94-.07-53.88-.07-80.82Zm-151.34,38.06c-22.69.01-45.37.01-68.06,0-6.3,0-8.15-1.9-8.15-8.33-.01-13.34,0-26.67,0-40.01s0-26.42,0-39.64c0-6.45,1.84-8.34,8.13-8.35,22.69-.01,45.37-.01,68.06,0,6.31,0,8.16,1.89,8.16,8.32.01,26.55.01,53.1,0,79.65,0,6.44-1.85,8.35-8.14,8.35Z"/>
    </g>
  </g>
</svg>